<svg xmlns="http://www.w3.org/2000/svg" xmlns:xlink="http://www.w3.org/1999/xlink" version="1.1" width="256" height="256" viewBox="0 0 256 256" xml:space="preserve">
<g style="stroke: none; stroke-width: 0; stroke-dasharray: none; stroke-linecap: butt; stroke-linejoin: miter; stroke-miterlimit: 10; fill: none; fill-rule: nonzero; opacity: 1;" transform="translate(1.4065934065934016 1.4065934065934016) scale(2.81 2.81)">
	<path d="M 84.259 16.068 H 5.741 C 2.57 16.068 0 18.638 0 21.809 v 6.131 v 2 V 60.06 v 2 v 6.131 c 0 3.171 2.57 5.741 5.741 5.741 h 78.518 c 3.171 0 5.741 -2.57 5.741 -5.741 V 62.06 v -2 V 29.94 v -2 v -6.131 C 90 18.638 87.43 16.068 84.259 16.068 z" style="stroke: none; stroke-width: 1; stroke-dasharray: none; stroke-linecap: butt; stroke-linejoin: miter; stroke-miterlimit: 10; fill: rgb(240,240,240); fill-rule: nonzero; opacity: 1;" transform=" matrix(1 0 0 1 0 0) " stroke-linecap="round"/>
	<path d="M 12.085 35.374 c -0.208 0 -0.384 0.151 -0.417 0.356 L 9.264 50.979 c -0.033 0.213 0.112 0.413 0.325 0.446 c 0.02 0.003 0.04 0.005 0.06 0.005 h 2.851 c 0.207 0 0.384 -0.151 0.417 -0.356 l 0.706 -4.478 c 0.032 -0.205 0.209 -0.356 0.417 -0.356 h 2.592 c 3.029 0 5.6 -2.21 6.07 -5.205 c 0.474 -3.02 -1.886 -5.654 -5.23 -5.66 H 12.085 z M 14.857 38.778 h 2.074 c 1.708 0 2.264 1.008 2.088 2.122 c -0.176 1.117 -1.039 1.939 -2.691 1.939 h -2.111 L 14.857 38.778 z M 28.502 39.815 c -0.72 0.003 -1.549 0.15 -2.479 0.538 c -2.134 0.889 -3.158 2.727 -3.593 4.067 c 0 0 -1.385 4.088 1.744 6.334 c 0 0 2.902 2.162 6.168 -0.133 l -0.056 0.359 c -0.033 0.213 0.112 0.413 0.325 0.446 c 0.02 0.003 0.04 0.005 0.06 0.005 h 2.707 c 0.208 0 0.384 -0.151 0.417 -0.356 l 1.647 -10.442 c 0.034 -0.213 -0.112 -0.413 -0.325 -0.447 c -0.02 -0.003 -0.04 -0.005 -0.061 -0.005 H 32.35 c -0.208 0 -0.384 0.151 -0.417 0.356 l -0.089 0.562 C 31.845 41.098 30.663 39.807 28.502 39.815 L 28.502 39.815 z M 28.591 43.113 c 0.311 0 0.595 0.043 0.85 0.125 c 1.168 0.375 1.83 1.497 1.639 2.713 c -0.236 1.498 -1.464 2.6 -3.04 2.6 c -0.311 0 -0.595 -0.043 -0.85 -0.125 c -1.168 -0.375 -1.834 -1.497 -1.642 -2.713 C 25.784 44.216 27.016 43.113 28.591 43.113 L 28.591 43.113 z" style="stroke: none; stroke-width: 1; stroke-dasharray: none; stroke-linecap: butt; stroke-linejoin: miter; stroke-miterlimit: 10; fill: rgb(0,48,135); fill-rule: nonzero; opacity: 1;" transform=" matrix(1 0 0 1 0 0) " stroke-linecap="round"/>
	<path d="M 51.066 35.374 c -0.208 0 -0.384 0.151 -0.417 0.356 l -2.404 15.248 c -0.033 0.213 0.112 0.413 0.325 0.446 c 0.02 0.003 0.04 0.005 0.06 0.005 h 2.851 c 0.207 0 0.384 -0.151 0.417 -0.356 l 0.706 -4.478 c 0.032 -0.205 0.209 -0.356 0.417 -0.356 h 2.592 c 3.029 0 5.6 -2.21 6.07 -5.205 c 0.474 -3.02 -1.885 -5.654 -5.229 -5.66 H 51.066 z M 53.838 38.778 h 2.074 c 1.708 0 2.264 1.008 2.088 2.122 c -0.176 1.117 -1.039 1.939 -2.691 1.939 h -2.111 L 53.838 38.778 z M 67.484 39.815 c -0.72 0.003 -1.549 0.15 -2.479 0.538 c -2.134 0.889 -3.158 2.727 -3.593 4.067 c 0 0 -1.384 4.088 1.745 6.334 c 0 0 2.901 2.162 6.168 -0.133 l -0.056 0.359 c -0.033 0.213 0.112 0.413 0.325 0.446 c 0.02 0.003 0.04 0.005 0.06 0.005 h 2.707 c 0.208 0 0.384 -0.151 0.417 -0.356 l 1.647 -10.442 c 0.034 -0.213 -0.112 -0.413 -0.325 -0.447 c -0.02 -0.003 -0.041 -0.005 -0.061 -0.005 h -2.707 c -0.208 0 -0.384 0.151 -0.417 0.356 l -0.089 0.562 C 70.827 41.098 69.644 39.807 67.484 39.815 L 67.484 39.815 z M 67.572 43.113 c 0.311 0 0.595 0.043 0.85 0.125 c 1.168 0.375 1.83 1.497 1.639 2.713 c -0.236 1.498 -1.464 2.6 -3.04 2.6 c -0.311 0 -0.595 -0.043 -0.85 -0.125 c -1.168 -0.375 -1.834 -1.497 -1.642 -2.713 C 64.765 44.216 65.997 43.113 67.572 43.113 L 67.572 43.113 z" style="stroke: none; stroke-width: 1; stroke-dasharray: none; stroke-linecap: butt; stroke-linejoin: miter; stroke-miterlimit: 10; fill: rgb(0,112,224); fill-rule: nonzero; opacity: 1;" transform=" matrix(1 0 0 1 0 0) " stroke-linecap="round"/>
	<path d="M 36.726 40.18 c -0.215 0 -0.367 0.21 -0.302 0.414 l 2.968 9.209 l -2.683 4.34 c -0.13 0.211 0.021 0.483 0.269 0.483 h 3.172 c 0.184 0 0.355 -0.097 0.451 -0.255 l 8.288 -13.711 c 0.127 -0.211 -0.025 -0.48 -0.271 -0.48 h -3.171 c -0.186 0 -0.359 0.099 -0.454 0.259 l -3.262 5.508 l -1.656 -5.467 c -0.054 -0.178 -0.218 -0.3 -0.404 -0.3 L 36.726 40.18 z" style="stroke: none; stroke-width: 1; stroke-dasharray: none; stroke-linecap: butt; stroke-linejoin: miter; stroke-miterlimit: 10; fill: rgb(0,48,135); fill-rule: nonzero; opacity: 1;" transform=" matrix(1 0 0 1 0 0) " stroke-linecap="round"/>
	<path d="M 77.5 35.374 c -0.207 0 -0.384 0.151 -0.417 0.356 l -2.405 15.248 c -0.034 0.213 0.112 0.413 0.325 0.447 c 0.02 0.003 0.041 0.005 0.061 0.005 h 2.851 c 0.207 0 0.384 -0.151 0.417 -0.356 l 2.404 -15.248 c 0.033 -0.213 -0.112 -0.413 -0.325 -0.446 c -0.02 -0.003 -0.04 -0.005 -0.06 -0.005 H 77.5 z" style="stroke: none; stroke-width: 1; stroke-dasharray: none; stroke-linecap: butt; stroke-linejoin: miter; stroke-miterlimit: 10; fill: rgb(0,112,224); fill-rule: nonzero; opacity: 1;" transform=" matrix(1 0 0 1 0 0) " stroke-linecap="round"/>
	<path d="M 4 68.191 V 62.06 v -2 V 29.94 v -2 v -6.131 c 0 -3.171 2.57 -5.741 5.741 -5.741 h -4 C 2.57 16.068 0 18.638 0 21.809 v 6.131 V 62.06 v 6.131 c 0 3.171 2.57 5.741 5.741 5.741 h 4 C 6.57 73.932 4 71.362 4 68.191 z" style="stroke: none; stroke-width: 1; stroke-dasharray: none; stroke-linecap: butt; stroke-linejoin: miter; stroke-miterlimit: 10; fill: rgb(212,212,212); fill-rule: nonzero; opacity: 1;" transform=" matrix(1 0 0 1 0 0) " stroke-linecap="round"/>
</g>
</svg>