<svg xmlns="http://www.w3.org/2000/svg" xmlns:xlink="http://www.w3.org/1999/xlink" version="1.1" width="256" height="256" viewBox="0 0 256 256" xml:space="preserve">
<g style="stroke: none; stroke-width: 0; stroke-dasharray: none; stroke-linecap: butt; stroke-linejoin: miter; stroke-miterlimit: 10; fill: none; fill-rule: nonzero; opacity: 1;" transform="translate(1.4065934065934016 1.4065934065934016) scale(2.81 2.81)">
	<path d="M 84.259 16.068 H 5.741 C 2.57 16.068 0 18.638 0 21.809 v 6.131 v 2 V 60.06 v 2 v 6.131 c 0 3.171 2.57 5.741 5.741 5.741 h 78.518 c 3.171 0 5.741 -2.57 5.741 -5.741 V 62.06 v -2 V 29.94 v -2 v -6.131 C 90 18.638 87.43 16.068 84.259 16.068 z" style="stroke: none; stroke-width: 1; stroke-dasharray: none; stroke-linecap: butt; stroke-linejoin: miter; stroke-miterlimit: 10; fill: rgb(240,240,240); fill-rule: nonzero; opacity: 1;" transform=" matrix(1 0 0 1 0 0) " stroke-linecap="round"/>
	<path d="M 4 68.191 V 62.06 v -2 V 29.94 v -2 v -6.131 c 0 -3.171 2.57 -5.741 5.741 -5.741 h -4 C 2.57 16.068 0 18.638 0 21.809 v 6.131 V 62.06 v 6.131 c 0 3.171 2.57 5.741 5.741 5.741 h 4 C 6.57 73.932 4 71.362 4 68.191 z" style="stroke: none; stroke-width: 1; stroke-dasharray: none; stroke-linecap: butt; stroke-linejoin: miter; stroke-miterlimit: 10; fill: rgb(212,212,212); fill-rule: nonzero; opacity: 1;" transform=" matrix(1 0 0 1 0 0) " stroke-linecap="round"/>
	<path d="M 23.425 34.639 c -0.797 0.943 -2.072 1.687 -3.347 1.581 c -0.159 -1.275 0.465 -2.63 1.195 -3.467 c 0.797 -0.97 2.192 -1.66 3.321 -1.713 C 24.727 32.368 24.209 33.67 23.425 34.639 M 24.58 36.472 c -1.846 -0.106 -3.427 1.049 -4.304 1.049 c -0.89 0 -2.232 -0.996 -3.693 -0.97 c -1.899 0.027 -3.666 1.102 -4.636 2.816 c -1.992 3.427 -0.518 8.501 1.408 11.29 c 0.943 1.381 2.072 2.896 3.56 2.843 c 1.408 -0.053 1.966 -0.917 3.666 -0.917 c 1.713 0 2.205 0.917 3.693 0.89 c 1.541 -0.027 2.51 -1.381 3.454 -2.763 c 1.076 -1.567 1.514 -3.095 1.541 -3.175 c -0.027 -0.027 -2.975 -1.156 -3.002 -4.556 c -0.027 -2.843 2.324 -4.197 2.431 -4.277 C 27.37 36.738 25.298 36.526 24.58 36.472 M 35.247 32.62 v 20.708 h 3.214 v -7.08 h 4.45 c 4.065 0 6.92 -2.789 6.92 -6.827 s -2.803 -6.801 -6.814 -6.801 L 35.247 32.62 L 35.247 32.62 z M 38.461 35.33 h 3.706 c 2.789 0 4.383 1.488 4.383 4.104 c 0 2.617 -1.594 4.118 -4.397 4.118 h -3.693 V 35.33 z M 55.702 53.488 c 2.019 0 3.892 -1.023 4.742 -2.643 h 0.066 v 2.484 h 2.975 V 43.021 c 0 -2.989 -2.391 -4.915 -6.07 -4.915 c -3.414 0 -5.937 1.953 -6.03 4.636 h 2.896 c 0.239 -1.275 1.421 -2.112 3.042 -2.112 c 1.966 0 3.068 0.917 3.068 2.603 v 1.142 l -4.011 0.239 c -3.732 0.226 -5.751 1.753 -5.751 4.41 C 50.628 51.708 52.713 53.488 55.702 53.488 z M 56.565 51.03 c -1.713 0 -2.803 -0.824 -2.803 -2.085 c 0 -1.302 1.049 -2.059 3.055 -2.178 l 3.573 -0.226 v 1.169 C 60.391 49.649 58.744 51.03 56.565 51.03 z M 67.457 58.96 c 3.135 0 4.609 -1.195 5.898 -4.822 L 79 38.305 h -3.268 l -3.786 12.233 H 71.88 l -3.786 -12.233 h -3.361 l 5.446 15.076 l -0.292 0.917 c -0.491 1.554 -1.288 2.152 -2.71 2.152 c -0.252 0 -0.744 -0.027 -0.943 -0.053 v 2.484 C 66.421 58.934 67.218 58.96 67.457 58.96 z" style="stroke: none; stroke-width: 1; stroke-dasharray: none; stroke-linecap: butt; stroke-linejoin: miter; stroke-miterlimit: 10; fill: rgb(51,51,51); fill-rule: nonzero; opacity: 1;" transform=" matrix(1 0 0 1 0 0) " stroke-linecap="round"/>
</g>
</svg>