<?xml version="1.0" encoding="UTF-8"?>
<svg id="_メイン" data-name="メイン" xmlns="http://www.w3.org/2000/svg" viewBox="0 0 336 200">
  <defs>
    <style>
      .cls-1 {
        fill: #f6f1eb;
        stroke-width: 0px;
      }
    </style>
  </defs>
  <rect class="cls-1" x="129.07" y="55.96" width="23.29" height="4.82"/>
  <polygon class="cls-1" points="52.2 53.4 55.56 58.09 52.2 62.77 52.2 103.12 9.4 0 0 0 0 53.4 3.36 58.09 0 62.77 0 116.18 9.4 116.18 9.4 62.77 6.04 58.09 9.4 53.4 9.4 12.53 52.2 116.18 61.6 116.18 61.6 62.77 58.24 58.09 61.6 53.4 61.6 0 52.2 0 52.2 53.4"/>
  <polygon class="cls-1" points="115.25 53.55 118.6 58.23 115.25 62.92 115.25 116.18 158.55 116.18 158.55 111.36 124.64 111.36 124.64 62.92 121.29 58.23 124.64 53.55 124.64 4.96 158.55 4.96 158.55 .14 115.25 .14 115.25 53.55"/>
  <polygon class="cls-1" points="242.47 111.36 208.57 111.36 208.57 62.77 205.21 58.09 208.57 53.4 208.57 0 199.17 0 199.17 53.4 202.53 58.09 199.17 62.77 199.17 116.18 242.47 116.18 242.47 111.36"/>
  <path class="cls-1" d="M335.63,0h-9.4v53.4l3.36,4.68-3.36,4.68v24.35c0,13.78-8.06,24.43-20.36,24.43-11.16,0-20.35-9.68-20.37-24.67v-24.12l-3.36-4.68,3.36-4.68V0h-9.4v53.4l3.36,4.68-3.36,4.68v26.1c.31,8.83,3.52,27.6,29.77,27.6,18.32,0,29.76-11.53,29.76-30.81v-22.89l-3.36-4.68,3.36-4.68V0Z"/>
  <rect class="cls-1" x="129.07" y="55.96" width="23.29" height="4.82"/>
  <polygon class="cls-1" points="52.2 53.4 55.56 58.09 52.2 62.77 52.2 103.12 9.4 0 0 0 0 53.4 3.36 58.09 0 62.77 0 116.18 9.4 116.18 9.4 62.77 6.04 58.09 9.4 53.4 9.4 12.53 52.2 116.18 61.6 116.18 61.6 62.77 58.24 58.09 61.6 53.4 61.6 0 52.2 0 52.2 53.4"/>
  <polygon class="cls-1" points="115.25 53.55 118.6 58.23 115.25 62.92 115.25 116.18 158.55 116.18 158.55 111.36 124.64 111.36 124.64 62.92 121.29 58.23 124.64 53.55 124.64 4.96 158.55 4.96 158.55 .14 115.25 .14 115.25 53.55"/>
  <polygon class="cls-1" points="242.47 111.36 208.57 111.36 208.57 62.77 205.21 58.09 208.57 53.4 208.57 0 199.17 0 199.17 53.4 202.53 58.09 199.17 62.77 199.17 116.18 242.47 116.18 242.47 111.36"/>
  <path class="cls-1" d="M335.63,0h-9.4v53.4l3.36,4.68-3.36,4.68v24.35c0,13.78-8.06,24.43-20.36,24.43-11.16,0-20.35-9.68-20.37-24.67v-24.12l-3.36-4.68,3.36-4.68V0h-9.4v53.4l3.36,4.68-3.36,4.68v26.1c.31,8.83,3.52,27.6,29.77,27.6,18.32,0,29.76-11.53,29.76-30.81v-22.89l-3.36-4.68,3.36-4.68V0Z"/>
  <rect class="cls-1" x="129.07" y="55.96" width="23.29" height="4.82"/>
  <polygon class="cls-1" points="52.2 53.4 55.56 58.09 52.2 62.77 52.2 103.12 9.4 0 0 0 0 53.4 3.36 58.09 0 62.77 0 116.18 9.4 116.18 9.4 62.77 6.04 58.09 9.4 53.4 9.4 12.53 52.2 116.18 61.6 116.18 61.6 62.77 58.24 58.09 61.6 53.4 61.6 0 52.2 0 52.2 53.4"/>
  <polygon class="cls-1" points="115.25 53.55 118.6 58.23 115.25 62.92 115.25 116.18 158.55 116.18 158.55 111.36 124.64 111.36 124.64 62.92 121.29 58.23 124.64 53.55 124.64 4.96 158.55 4.96 158.55 .14 115.25 .14 115.25 53.55"/>
  <polygon class="cls-1" points="242.47 111.36 208.57 111.36 208.57 62.77 205.21 58.09 208.57 53.4 208.57 0 199.17 0 199.17 53.4 202.53 58.09 199.17 62.77 199.17 116.18 242.47 116.18 242.47 111.36"/>
  <path class="cls-1" d="M335.63,0h-9.4v53.4l3.36,4.68-3.36,4.68v24.35c0,13.78-8.06,24.43-20.36,24.43-11.16,0-20.35-9.68-20.37-24.67v-24.12l-3.36-4.68,3.36-4.68V0h-9.4v53.4l3.36,4.68-3.36,4.68v26.1c.31,8.83,3.52,27.6,29.77,27.6,18.32,0,29.76-11.53,29.76-30.81v-22.89l-3.36-4.68,3.36-4.68V0Z"/>
  <rect class="cls-1" x="129.07" y="55.96" width="23.29" height="4.82"/>
  <polygon class="cls-1" points="52.2 53.4 55.56 58.09 52.2 62.77 52.2 103.12 9.4 0 0 0 0 53.4 3.36 58.09 0 62.77 0 116.18 9.4 116.18 9.4 62.77 6.04 58.09 9.4 53.4 9.4 12.53 52.2 116.18 61.6 116.18 61.6 62.77 58.24 58.09 61.6 53.4 61.6 0 52.2 0 52.2 53.4"/>
  <polygon class="cls-1" points="115.25 53.55 118.6 58.23 115.25 62.92 115.25 116.18 158.55 116.18 158.55 111.36 124.64 111.36 124.64 62.92 121.29 58.23 124.64 53.55 124.64 4.96 158.55 4.96 158.55 .14 115.25 .14 115.25 53.55"/>
  <polygon class="cls-1" points="242.47 111.36 208.57 111.36 208.57 62.77 205.21 58.09 208.57 53.4 208.57 0 199.17 0 199.17 53.4 202.53 58.09 199.17 62.77 199.17 116.18 242.47 116.18 242.47 111.36"/>
  <path class="cls-1" d="M335.63,0h-9.4v53.4l3.36,4.68-3.36,4.68v24.35c0,13.78-8.06,24.43-20.36,24.43-11.16,0-20.35-9.68-20.37-24.67v-24.12l-3.36-4.68,3.36-4.68V0h-9.4v53.4l3.36,4.68-3.36,4.68v26.1c.31,8.83,3.52,27.6,29.77,27.6,18.32,0,29.76-11.53,29.76-30.81v-22.89l-3.36-4.68,3.36-4.68V0Z"/>
  <rect class="cls-1" x="129.07" y="55.96" width="23.29" height="4.82"/>
  <polygon class="cls-1" points="52.2 53.4 55.56 58.09 52.2 62.77 52.2 103.12 9.4 0 0 0 0 53.4 3.36 58.09 0 62.77 0 116.18 9.4 116.18 9.4 62.77 6.04 58.09 9.4 53.4 9.4 12.53 52.2 116.18 61.6 116.18 61.6 62.77 58.24 58.09 61.6 53.4 61.6 0 52.2 0 52.2 53.4"/>
  <polygon class="cls-1" points="115.25 53.55 118.6 58.23 115.25 62.92 115.25 116.18 158.55 116.18 158.55 111.36 124.64 111.36 124.64 62.92 121.29 58.23 124.64 53.55 124.64 4.96 158.55 4.96 158.55 .14 115.25 .14 115.25 53.55"/>
  <polygon class="cls-1" points="242.47 111.36 208.57 111.36 208.57 62.77 205.21 58.09 208.57 53.4 208.57 0 199.17 0 199.17 53.4 202.53 58.09 199.17 62.77 199.17 116.18 242.47 116.18 242.47 111.36"/>
  <path class="cls-1" d="M335.63,0h-9.4v53.4l3.36,4.68-3.36,4.68v24.35c0,13.78-8.06,24.43-20.36,24.43-11.16,0-20.35-9.68-20.37-24.67v-24.12l-3.36-4.68,3.36-4.68V0h-9.4v53.4l3.36,4.68-3.36,4.68v26.1c.31,8.83,3.52,27.6,29.77,27.6,18.32,0,29.76-11.53,29.76-30.81v-22.89l-3.36-4.68,3.36-4.68V0Z"/>
  <g>
    <polygon class="cls-1" points="86.52 185.43 83.02 185.43 78.34 191.61 78.34 185.43 75.37 185.43 75.37 199.75 78.34 199.75 78.34 195.54 79.67 193.86 83.25 199.75 86.73 199.75 81.71 191.51 86.52 185.43"/>
    <path class="cls-1" d="M102.07,185.19c-3.79,0-6.49,3.01-6.49,7.3v.25c0,4.28,2.66,7.26,6.46,7.26s6.49-3.03,6.49-7.3v-.25c0-4.28-2.66-7.26-6.46-7.26ZM105.47,192.67c0,2.82-1.41,4.58-3.4,4.58s-3.44-1.78-3.44-4.6v-.14c0-2.82,1.41-4.58,3.42-4.58s3.42,1.78,3.42,4.6v.14Z"/>
    <path class="cls-1" d="M129.14,190.2v-.08c0-1.41-.43-2.54-1.21-3.31-.9-.9-2.23-1.37-3.89-1.37h-5.38v14.32h2.97v-4.71h1.86l2.64,4.71h3.4l-3.05-5.32c1.58-.7,2.66-2.07,2.66-4.24ZM126.16,190.28c0,1.29-.82,2.15-2.33,2.15h-2.19v-4.32h2.13c1.51,0,2.39.72,2.39,2.15v.02Z"/>
    <path class="cls-1" d="M143.32,185.35l-5.14,14.4h2.99l1.04-3.11h4.93l1.06,3.11h3.07l-5.14-14.4h-2.82ZM143.12,194.03l1.58-4.67,1.55,4.67h-3.13Z"/>
    <rect class="cls-1" x="160.94" y="185.43" width="2.97" height="14.32"/>
    <path class="cls-1" d="M182.73,192.31c1.02-.55,1.94-1.45,1.94-3.13v-.06c0-1-.33-1.78-.96-2.43-.82-.82-2.15-1.25-3.74-1.25h-5.32v14.32h5.46c3.11,0,5.18-1.35,5.18-3.93v-.1c0-1.88-1.02-2.82-2.56-3.42ZM177.53,188.05h2.21c1.27,0,2.01.55,2.01,1.6v.02c0,1.08-.84,1.62-2.15,1.62h-2.07v-3.23ZM182.36,195.46c0,1.11-.84,1.68-2.17,1.68h-2.66v-3.36h2.6c1.47,0,2.23.63,2.23,1.66v.02Z"/>
    <path class="cls-1" d="M199.26,185.35l-5.14,14.4h2.99l1.04-3.11h4.93l1.06,3.11h3.07l-5.14-14.4h-2.82ZM199.05,194.03l1.58-4.67,1.55,4.67h-3.13Z"/>
    <path class="cls-1" d="M221.99,191.32c-2.23-.92-2.72-1.31-2.72-2.13v-.02c0-.74.63-1.25,1.66-1.25,1.11,0,2.15.59,3.05,1.33l1.66-2.25c-1.31-1.19-2.95-1.76-4.62-1.76-2.76,0-4.69,1.7-4.69,4.19v.04c0,2.46,1.58,3.42,4.11,4.4,2.05.78,2.46,1.23,2.46,1.94v.02c0,.84-.69,1.41-1.84,1.41-1.43,0-2.6-.78-3.56-1.62l-1.76,2.19c1.58,1.47,3.48,2.11,5.3,2.11,2.78,0,4.81-1.64,4.81-4.3v-.04c0-2.23-1.35-3.29-3.85-4.28Z"/>
    <polygon class="cls-1" points="243.48 191.18 238.77 191.18 238.77 185.43 235.8 185.43 235.8 199.75 238.77 199.75 238.77 193.92 243.48 193.92 243.48 199.75 246.44 199.75 246.44 185.43 243.48 185.43 243.48 191.18"/>
    <rect class="cls-1" x="257.18" y="185.43" width="2.97" height="14.32"/>
    <polygon class="cls-1" points="86.52 185.43 83.02 185.43 78.34 191.61 78.34 185.43 75.37 185.43 75.37 199.75 78.34 199.75 78.34 195.54 79.67 193.86 83.25 199.75 86.73 199.75 81.71 191.51 86.52 185.43"/>
    <path class="cls-1" d="M102.07,185.19c-3.79,0-6.49,3.01-6.49,7.3v.25c0,4.28,2.66,7.26,6.46,7.26s6.49-3.03,6.49-7.3v-.25c0-4.28-2.66-7.26-6.46-7.26ZM105.47,192.67c0,2.82-1.41,4.58-3.4,4.58s-3.44-1.78-3.44-4.6v-.14c0-2.82,1.41-4.58,3.42-4.58s3.42,1.78,3.42,4.6v.14Z"/>
    <path class="cls-1" d="M129.14,190.2v-.08c0-1.41-.43-2.54-1.21-3.31-.9-.9-2.23-1.37-3.89-1.37h-5.38v14.32h2.97v-4.71h1.86l2.64,4.71h3.4l-3.05-5.32c1.58-.7,2.66-2.07,2.66-4.24ZM126.16,190.28c0,1.29-.82,2.15-2.33,2.15h-2.19v-4.32h2.13c1.51,0,2.39.72,2.39,2.15v.02Z"/>
    <path class="cls-1" d="M143.32,185.35l-5.14,14.4h2.99l1.04-3.11h4.93l1.06,3.11h3.07l-5.14-14.4h-2.82ZM143.12,194.03l1.58-4.67,1.55,4.67h-3.13Z"/>
    <rect class="cls-1" x="160.94" y="185.43" width="2.97" height="14.32"/>
    <path class="cls-1" d="M182.73,192.31c1.02-.55,1.94-1.45,1.94-3.13v-.06c0-1-.33-1.78-.96-2.43-.82-.82-2.15-1.25-3.74-1.25h-5.32v14.32h5.46c3.11,0,5.18-1.35,5.18-3.93v-.1c0-1.88-1.02-2.82-2.56-3.42ZM177.53,188.05h2.21c1.27,0,2.01.55,2.01,1.6v.02c0,1.08-.84,1.62-2.15,1.62h-2.07v-3.23ZM182.36,195.46c0,1.11-.84,1.68-2.17,1.68h-2.66v-3.36h2.6c1.47,0,2.23.63,2.23,1.66v.02Z"/>
    <path class="cls-1" d="M199.26,185.35l-5.14,14.4h2.99l1.04-3.11h4.93l1.06,3.11h3.07l-5.14-14.4h-2.82ZM199.05,194.03l1.58-4.67,1.55,4.67h-3.13Z"/>
    <path class="cls-1" d="M221.99,191.32c-2.23-.92-2.72-1.31-2.72-2.13v-.02c0-.74.63-1.25,1.66-1.25,1.11,0,2.15.59,3.05,1.33l1.66-2.25c-1.31-1.19-2.95-1.76-4.62-1.76-2.76,0-4.69,1.7-4.69,4.19v.04c0,2.46,1.58,3.42,4.11,4.4,2.05.78,2.46,1.23,2.46,1.94v.02c0,.84-.69,1.41-1.84,1.41-1.43,0-2.6-.78-3.56-1.62l-1.76,2.19c1.58,1.47,3.48,2.11,5.3,2.11,2.78,0,4.81-1.64,4.81-4.3v-.04c0-2.23-1.35-3.29-3.85-4.28Z"/>
    <polygon class="cls-1" points="243.48 191.18 238.77 191.18 238.77 185.43 235.8 185.43 235.8 199.75 238.77 199.75 238.77 193.92 243.48 193.92 243.48 199.75 246.44 199.75 246.44 185.43 243.48 185.43 243.48 191.18"/>
    <rect class="cls-1" x="257.18" y="185.43" width="2.97" height="14.32"/>
  </g>
</svg>